<mxfile host="app.diagrams.net" agent="Mozilla/5.0 (Windows NT 10.0; Win64; x64) AppleWebKit/537.36 (KHTML, like Gecko) Chrome/133.0.0.0 Safari/537.36" version="24.8.3">
  <diagram name="Sida-1" id="x3ZzoXaGqfRypT1GUdQm">
    <mxGraphModel dx="913" dy="537" grid="1" gridSize="10" guides="1" tooltips="1" connect="1" arrows="1" fold="1" page="1" pageScale="1" pageWidth="827" pageHeight="1169" math="0" shadow="0">
      <root>
        <mxCell id="0" />
        <mxCell id="1" parent="0" />
        <mxCell id="35zDWLOIGXifV8zpagiv-4" value="" style="rounded=0;orthogonalLoop=1;jettySize=auto;html=1;entryX=0;entryY=0.5;entryDx=0;entryDy=0;" edge="1" parent="1" source="35zDWLOIGXifV8zpagiv-1" target="35zDWLOIGXifV8zpagiv-14">
          <mxGeometry relative="1" as="geometry" />
        </mxCell>
        <mxCell id="35zDWLOIGXifV8zpagiv-16" value="" style="rounded=0;orthogonalLoop=1;jettySize=auto;html=1;" edge="1" parent="1" source="35zDWLOIGXifV8zpagiv-1">
          <mxGeometry relative="1" as="geometry">
            <mxPoint x="170" y="220" as="sourcePoint" />
            <mxPoint x="274" y="235" as="targetPoint" />
          </mxGeometry>
        </mxCell>
        <mxCell id="35zDWLOIGXifV8zpagiv-17" value="" style="rounded=0;orthogonalLoop=1;jettySize=auto;html=1;entryX=0;entryY=0.5;entryDx=0;entryDy=0;" edge="1" parent="1" source="35zDWLOIGXifV8zpagiv-1" target="35zDWLOIGXifV8zpagiv-2">
          <mxGeometry relative="1" as="geometry" />
        </mxCell>
        <mxCell id="35zDWLOIGXifV8zpagiv-1" value="Employee" style="shape=umlActor;verticalLabelPosition=bottom;verticalAlign=top;html=1;" vertex="1" parent="1">
          <mxGeometry x="120" y="110" width="50" height="80" as="geometry" />
        </mxCell>
        <mxCell id="35zDWLOIGXifV8zpagiv-2" value="Create member" style="ellipse;whiteSpace=wrap;html=1;" vertex="1" parent="1">
          <mxGeometry x="274" y="70" width="116" height="50" as="geometry" />
        </mxCell>
        <mxCell id="35zDWLOIGXifV8zpagiv-13" value="" style="edgeStyle=orthogonalEdgeStyle;rounded=0;orthogonalLoop=1;jettySize=auto;html=1;" edge="1" parent="1" source="35zDWLOIGXifV8zpagiv-5" target="35zDWLOIGXifV8zpagiv-1">
          <mxGeometry relative="1" as="geometry" />
        </mxCell>
        <mxCell id="35zDWLOIGXifV8zpagiv-5" value="Member" style="shape=umlActor;verticalLabelPosition=bottom;verticalAlign=top;html=1;" vertex="1" parent="1">
          <mxGeometry x="20" y="110" width="50" height="80" as="geometry" />
        </mxCell>
        <mxCell id="35zDWLOIGXifV8zpagiv-9" value="Bowling" style="shape=umlFrame;whiteSpace=wrap;html=1;pointerEvents=0;" vertex="1" parent="1">
          <mxGeometry x="218.5" y="30" width="451.5" height="280" as="geometry" />
        </mxCell>
        <mxCell id="35zDWLOIGXifV8zpagiv-14" value="Check in member" style="ellipse;whiteSpace=wrap;html=1;" vertex="1" parent="1">
          <mxGeometry x="274" y="140" width="116" height="50" as="geometry" />
        </mxCell>
        <mxCell id="35zDWLOIGXifV8zpagiv-15" value="Setup game" style="ellipse;whiteSpace=wrap;html=1;" vertex="1" parent="1">
          <mxGeometry x="274" y="210" width="116" height="50" as="geometry" />
        </mxCell>
        <mxCell id="35zDWLOIGXifV8zpagiv-18" value="Determine winner" style="ellipse;whiteSpace=wrap;html=1;" vertex="1" parent="1">
          <mxGeometry x="520" y="210" width="116" height="50" as="geometry" />
        </mxCell>
        <mxCell id="35zDWLOIGXifV8zpagiv-22" value="" style="endArrow=block;dashed=1;endFill=0;endSize=12;html=1;rounded=0;entryX=0;entryY=0.5;entryDx=0;entryDy=0;exitX=1;exitY=0.5;exitDx=0;exitDy=0;" edge="1" parent="1" source="35zDWLOIGXifV8zpagiv-15" target="35zDWLOIGXifV8zpagiv-18">
          <mxGeometry width="160" relative="1" as="geometry">
            <mxPoint x="290" y="300" as="sourcePoint" />
            <mxPoint x="450" y="300" as="targetPoint" />
          </mxGeometry>
        </mxCell>
        <mxCell id="35zDWLOIGXifV8zpagiv-23" value="&amp;lt;&amp;lt;include&amp;gt;&amp;gt;" style="edgeLabel;html=1;align=center;verticalAlign=middle;resizable=0;points=[];" vertex="1" connectable="0" parent="35zDWLOIGXifV8zpagiv-22">
          <mxGeometry x="-0.1448" relative="1" as="geometry">
            <mxPoint as="offset" />
          </mxGeometry>
        </mxCell>
      </root>
    </mxGraphModel>
  </diagram>
</mxfile>
